<svg width="23" height="25" viewBox="0 0 23 25" fill="none" xmlns="http://www.w3.org/2000/svg">
<path d="M20 2.5H18.75V0.8C18.75 0.358172 18.3918 0 17.95 0H17.05C16.6082 0 16.25 0.358172 16.25 0.8V2.5H6.25V0.8C6.25 0.358172 5.89183 0 5.45 0H4.55C4.10817 0 3.75 0.358172 3.75 0.8V2.5H2.5C1.125 2.5 0 3.625 0 5V22.5C0 23.875 1.125 25 2.5 25H20C21.375 25 22.5 23.875 22.5 22.5V5C22.5 3.625 21.375 2.5 20 2.5ZM20 22.5H2.5V10H20V22.5ZM2.5 7.5V5H20V7.5H2.5ZM5 13.3C5 12.8582 5.35817 12.5 5.8 12.5H16.7C17.1418 12.5 17.5 12.8582 17.5 13.3V14.2C17.5 14.6418 17.1418 15 16.7 15H5.8C5.35817 15 5 14.6418 5 14.2V13.3ZM5 18.3C5 17.8582 5.35817 17.5 5.8 17.5H12.95C13.3918 17.5 13.75 17.8582 13.75 18.3V19.2C13.75 19.6418 13.3918 20 12.95 20H5.8C5.35817 20 5 19.6418 5 19.2V18.3Z" fill="#7F977B"/>
</svg>
